<mxfile host="app.diagrams.net" modified="2022-05-11T11:54:34.608Z" agent="5.0 (Macintosh; Intel Mac OS X 10_15_7) AppleWebKit/537.36 (KHTML, like Gecko) Chrome/101.0.4951.54 Safari/537.36" etag="mkRvHq4dC5qWZPCW0anl" version="18.0.2" type="github">
  <diagram id="kgpKYQtTHZ0yAKxKKP6v" name="Page-1">
    <mxGraphModel dx="982" dy="633" grid="1" gridSize="10" guides="1" tooltips="1" connect="1" arrows="1" fold="1" page="1" pageScale="1" pageWidth="850" pageHeight="1100" math="0" shadow="0">
      <root>
        <mxCell id="0" />
        <mxCell id="1" parent="0" />
        <mxCell id="CcL-DhchF8u18WNfuIRF-1" value="&lt;font style=&quot;font-size: 13px;&quot;&gt;User&lt;/font&gt;" style="verticalLabelPosition=bottom;html=1;verticalAlign=top;align=center;strokeColor=none;fillColor=#00BEF2;shape=mxgraph.azure.computer;pointerEvents=1;" vertex="1" parent="1">
          <mxGeometry x="700" y="170" width="130" height="120" as="geometry" />
        </mxCell>
        <mxCell id="CcL-DhchF8u18WNfuIRF-2" value="&lt;font style=&quot;font-size: 13px;&quot;&gt;Server&lt;/font&gt;" style="image;html=1;image=img/lib/clip_art/networking/Cloud_Server_128x128.png" vertex="1" parent="1">
          <mxGeometry x="440" y="180" width="130" height="110" as="geometry" />
        </mxCell>
        <mxCell id="CcL-DhchF8u18WNfuIRF-3" value="DB: &lt;br&gt;Operation" style="strokeWidth=2;html=1;shape=mxgraph.flowchart.database;whiteSpace=wrap;" vertex="1" parent="1">
          <mxGeometry x="50" y="180" width="110" height="120" as="geometry" />
        </mxCell>
        <mxCell id="CcL-DhchF8u18WNfuIRF-4" value="notification_messges" style="swimlane;fontStyle=0;childLayout=stackLayout;horizontal=1;startSize=30;horizontalStack=0;resizeParent=1;resizeParentMax=0;resizeLast=0;collapsible=1;marginBottom=0;" vertex="1" parent="1">
          <mxGeometry x="400" y="360" width="160" height="180" as="geometry" />
        </mxCell>
        <mxCell id="CcL-DhchF8u18WNfuIRF-5" value="id: uuid" style="text;strokeColor=none;fillColor=none;align=left;verticalAlign=middle;spacingLeft=4;spacingRight=4;overflow=hidden;points=[[0,0.5],[1,0.5]];portConstraint=eastwest;rotatable=0;" vertex="1" parent="CcL-DhchF8u18WNfuIRF-4">
          <mxGeometry y="30" width="160" height="30" as="geometry" />
        </mxCell>
        <mxCell id="CcL-DhchF8u18WNfuIRF-6" value="message: string" style="text;strokeColor=none;fillColor=none;align=left;verticalAlign=middle;spacingLeft=4;spacingRight=4;overflow=hidden;points=[[0,0.5],[1,0.5]];portConstraint=eastwest;rotatable=0;" vertex="1" parent="CcL-DhchF8u18WNfuIRF-4">
          <mxGeometry y="60" width="160" height="30" as="geometry" />
        </mxCell>
        <mxCell id="CcL-DhchF8u18WNfuIRF-7" value="read: boolean" style="text;strokeColor=none;fillColor=none;align=left;verticalAlign=middle;spacingLeft=4;spacingRight=4;overflow=hidden;points=[[0,0.5],[1,0.5]];portConstraint=eastwest;rotatable=0;" vertex="1" parent="CcL-DhchF8u18WNfuIRF-4">
          <mxGeometry y="90" width="160" height="30" as="geometry" />
        </mxCell>
        <mxCell id="CcL-DhchF8u18WNfuIRF-10" value="user_id: foreign_key (User)" style="text;strokeColor=none;fillColor=none;align=left;verticalAlign=middle;spacingLeft=4;spacingRight=4;overflow=hidden;points=[[0,0.5],[1,0.5]];portConstraint=eastwest;rotatable=0;" vertex="1" parent="CcL-DhchF8u18WNfuIRF-4">
          <mxGeometry y="120" width="160" height="30" as="geometry" />
        </mxCell>
        <mxCell id="CcL-DhchF8u18WNfuIRF-11" value="created Date: Date" style="text;strokeColor=none;fillColor=none;align=left;verticalAlign=middle;spacingLeft=4;spacingRight=4;overflow=hidden;points=[[0,0.5],[1,0.5]];portConstraint=eastwest;rotatable=0;" vertex="1" parent="CcL-DhchF8u18WNfuIRF-4">
          <mxGeometry y="150" width="160" height="30" as="geometry" />
        </mxCell>
        <mxCell id="CcL-DhchF8u18WNfuIRF-12" value="" style="endArrow=classic;html=1;rounded=0;exitX=0;exitY=0.563;exitDx=0;exitDy=0;exitPerimeter=0;entryX=1;entryY=0.5;entryDx=0;entryDy=0;" edge="1" parent="1" source="CcL-DhchF8u18WNfuIRF-1" target="CcL-DhchF8u18WNfuIRF-2">
          <mxGeometry width="50" height="50" relative="1" as="geometry">
            <mxPoint x="400" y="340" as="sourcePoint" />
            <mxPoint x="450" y="290" as="targetPoint" />
          </mxGeometry>
        </mxCell>
        <mxCell id="CcL-DhchF8u18WNfuIRF-13" value="Action" style="edgeLabel;html=1;align=center;verticalAlign=middle;resizable=0;points=[];fontSize=13;" vertex="1" connectable="0" parent="CcL-DhchF8u18WNfuIRF-12">
          <mxGeometry x="0.1371" y="4" relative="1" as="geometry">
            <mxPoint y="10" as="offset" />
          </mxGeometry>
        </mxCell>
        <mxCell id="CcL-DhchF8u18WNfuIRF-14" value="Create, Delete, Update Operation" style="ellipse;whiteSpace=wrap;html=1;fontSize=13;" vertex="1" parent="1">
          <mxGeometry x="250" y="195" width="120" height="80" as="geometry" />
        </mxCell>
        <mxCell id="CcL-DhchF8u18WNfuIRF-15" value="" style="endArrow=classic;html=1;rounded=0;fontSize=13;entryX=1;entryY=0.5;entryDx=0;entryDy=0;exitX=0;exitY=0.5;exitDx=0;exitDy=0;" edge="1" parent="1" source="CcL-DhchF8u18WNfuIRF-2" target="CcL-DhchF8u18WNfuIRF-14">
          <mxGeometry width="50" height="50" relative="1" as="geometry">
            <mxPoint x="400" y="340" as="sourcePoint" />
            <mxPoint x="450" y="290" as="targetPoint" />
          </mxGeometry>
        </mxCell>
        <mxCell id="CcL-DhchF8u18WNfuIRF-16" value="" style="endArrow=classic;html=1;rounded=0;fontSize=13;entryX=1;entryY=0.5;entryDx=0;entryDy=0;entryPerimeter=0;exitX=0.017;exitY=0.6;exitDx=0;exitDy=0;exitPerimeter=0;" edge="1" parent="1" source="CcL-DhchF8u18WNfuIRF-14" target="CcL-DhchF8u18WNfuIRF-3">
          <mxGeometry width="50" height="50" relative="1" as="geometry">
            <mxPoint x="400" y="340" as="sourcePoint" />
            <mxPoint x="450" y="290" as="targetPoint" />
          </mxGeometry>
        </mxCell>
        <mxCell id="CcL-DhchF8u18WNfuIRF-17" value="DB: &lt;br&gt;AAA" style="strokeWidth=2;html=1;shape=mxgraph.flowchart.database;whiteSpace=wrap;" vertex="1" parent="1">
          <mxGeometry x="255" y="390" width="110" height="120" as="geometry" />
        </mxCell>
        <mxCell id="CcL-DhchF8u18WNfuIRF-18" value="" style="endArrow=classic;html=1;rounded=0;fontSize=13;entryX=0.5;entryY=0;entryDx=0;entryDy=0;entryPerimeter=0;exitX=0.5;exitY=1;exitDx=0;exitDy=0;" edge="1" parent="1" source="CcL-DhchF8u18WNfuIRF-14" target="CcL-DhchF8u18WNfuIRF-17">
          <mxGeometry width="50" height="50" relative="1" as="geometry">
            <mxPoint x="310" y="280" as="sourcePoint" />
            <mxPoint x="450" y="290" as="targetPoint" />
          </mxGeometry>
        </mxCell>
        <mxCell id="CcL-DhchF8u18WNfuIRF-19" value="Notification Service" style="ellipse;whiteSpace=wrap;html=1;fontSize=13;" vertex="1" parent="1">
          <mxGeometry x="250" y="600" width="120" height="80" as="geometry" />
        </mxCell>
        <mxCell id="CcL-DhchF8u18WNfuIRF-20" value="" style="endArrow=classic;html=1;rounded=0;fontSize=13;entryX=0.45;entryY=-0.037;entryDx=0;entryDy=0;entryPerimeter=0;exitX=0.445;exitY=1.017;exitDx=0;exitDy=0;exitPerimeter=0;" edge="1" parent="1" source="CcL-DhchF8u18WNfuIRF-17" target="CcL-DhchF8u18WNfuIRF-19">
          <mxGeometry width="50" height="50" relative="1" as="geometry">
            <mxPoint x="400" y="560" as="sourcePoint" />
            <mxPoint x="450" y="510" as="targetPoint" />
          </mxGeometry>
        </mxCell>
        <mxCell id="CcL-DhchF8u18WNfuIRF-21" value="" style="endArrow=classic;html=1;rounded=0;fontSize=13;exitX=1;exitY=0.5;exitDx=0;exitDy=0;" edge="1" parent="1" source="CcL-DhchF8u18WNfuIRF-19">
          <mxGeometry width="50" height="50" relative="1" as="geometry">
            <mxPoint x="400" y="560" as="sourcePoint" />
            <mxPoint x="760" y="640" as="targetPoint" />
          </mxGeometry>
        </mxCell>
        <mxCell id="CcL-DhchF8u18WNfuIRF-22" value="" style="endArrow=classic;html=1;rounded=0;fontSize=13;entryX=0.462;entryY=1.167;entryDx=0;entryDy=0;entryPerimeter=0;" edge="1" parent="1" target="CcL-DhchF8u18WNfuIRF-1">
          <mxGeometry width="50" height="50" relative="1" as="geometry">
            <mxPoint x="760" y="640" as="sourcePoint" />
            <mxPoint x="770" y="330" as="targetPoint" />
          </mxGeometry>
        </mxCell>
        <mxCell id="CcL-DhchF8u18WNfuIRF-23" value="Push Message" style="text;html=1;align=center;verticalAlign=middle;resizable=0;points=[];autosize=1;strokeColor=none;fillColor=none;fontSize=13;" vertex="1" parent="1">
          <mxGeometry x="660" y="610" width="100" height="20" as="geometry" />
        </mxCell>
        <mxCell id="CcL-DhchF8u18WNfuIRF-24" value="Websocket" style="text;html=1;align=center;verticalAlign=middle;resizable=0;points=[];autosize=1;strokeColor=none;fillColor=none;fontSize=13;" vertex="1" parent="1">
          <mxGeometry x="385" y="610" width="80" height="20" as="geometry" />
        </mxCell>
      </root>
    </mxGraphModel>
  </diagram>
</mxfile>
